<mxfile host="app.diagrams.net" agent="Mozilla/5.0 (Windows NT 10.0; Win64; x64) AppleWebKit/537.36 (KHTML, like Gecko) Chrome/141.0.0.0 Safari/537.36" version="28.2.8" pages="7">
  <diagram name="ДВИ" id="NxGXoIhUp27Hj8TUwwma">
    <mxGraphModel dx="1204" dy="652" grid="1" gridSize="10" guides="1" tooltips="1" connect="1" arrows="1" fold="1" page="1" pageScale="1" pageWidth="827" pageHeight="1169" math="0" shadow="0">
      <root>
        <mxCell id="0" />
        <mxCell id="1" parent="0" />
        <mxCell id="019gNFiipb4_sZnPs868-1" value="ИС Магазин мебели" style="shape=umlFrame;whiteSpace=wrap;html=1;pointerEvents=0;width=76;height=40;" parent="1" vertex="1">
          <mxGeometry x="144" y="210" width="550" height="780" as="geometry" />
        </mxCell>
        <mxCell id="019gNFiipb4_sZnPs868-2" value="Клиент" style="shape=umlActor;verticalLabelPosition=bottom;verticalAlign=top;html=1;" parent="1" vertex="1">
          <mxGeometry x="54" y="500" width="30" height="60" as="geometry" />
        </mxCell>
        <mxCell id="019gNFiipb4_sZnPs868-3" value="Менеджер" style="shape=umlActor;verticalLabelPosition=bottom;verticalAlign=top;html=1;" parent="1" vertex="1">
          <mxGeometry x="744" y="430" width="30" height="60" as="geometry" />
        </mxCell>
        <mxCell id="019gNFiipb4_sZnPs868-4" value="Склад" style="shape=umlActor;verticalLabelPosition=bottom;verticalAlign=top;html=1;" parent="1" vertex="1">
          <mxGeometry x="750" y="670" width="30" height="60" as="geometry" />
        </mxCell>
        <mxCell id="019gNFiipb4_sZnPs868-6" value="Просматривает каталог" style="ellipse;whiteSpace=wrap;html=1;" parent="1" vertex="1">
          <mxGeometry x="230" y="470" width="140" height="70" as="geometry" />
        </mxCell>
        <mxCell id="019gNFiipb4_sZnPs868-8" value="Заказывает мебель" style="ellipse;whiteSpace=wrap;html=1;" parent="1" vertex="1">
          <mxGeometry x="220" y="340" width="140" height="70" as="geometry" />
        </mxCell>
        <mxCell id="019gNFiipb4_sZnPs868-9" value="Работает с каталогом" style="ellipse;whiteSpace=wrap;html=1;" parent="1" vertex="1">
          <mxGeometry x="230" y="770" width="140" height="70" as="geometry" />
        </mxCell>
        <mxCell id="019gNFiipb4_sZnPs868-11" value="" style="endArrow=none;html=1;rounded=0;entryX=0;entryY=0.5;entryDx=0;entryDy=0;" parent="1" source="019gNFiipb4_sZnPs868-2" target="019gNFiipb4_sZnPs868-8" edge="1">
          <mxGeometry width="50" height="50" relative="1" as="geometry">
            <mxPoint x="244" y="540" as="sourcePoint" />
            <mxPoint x="294" y="490" as="targetPoint" />
          </mxGeometry>
        </mxCell>
        <mxCell id="019gNFiipb4_sZnPs868-12" value="" style="endArrow=none;html=1;rounded=0;entryX=0;entryY=0.5;entryDx=0;entryDy=0;" parent="1" source="019gNFiipb4_sZnPs868-2" target="019gNFiipb4_sZnPs868-6" edge="1">
          <mxGeometry width="50" height="50" relative="1" as="geometry">
            <mxPoint x="244" y="540" as="sourcePoint" />
            <mxPoint x="294" y="490" as="targetPoint" />
          </mxGeometry>
        </mxCell>
        <mxCell id="019gNFiipb4_sZnPs868-18" value="Работает с заказом клиента" style="ellipse;whiteSpace=wrap;html=1;" parent="1" vertex="1">
          <mxGeometry x="450" y="470" width="140" height="70" as="geometry" />
        </mxCell>
        <mxCell id="019gNFiipb4_sZnPs868-19" value="Просматривает данные каталога" style="ellipse;whiteSpace=wrap;html=1;" parent="1" vertex="1">
          <mxGeometry x="484" y="340" width="140" height="70" as="geometry" />
        </mxCell>
        <mxCell id="019gNFiipb4_sZnPs868-21" value="" style="endArrow=none;html=1;rounded=0;entryX=1;entryY=0.5;entryDx=0;entryDy=0;" parent="1" source="019gNFiipb4_sZnPs868-3" target="019gNFiipb4_sZnPs868-18" edge="1">
          <mxGeometry width="50" height="50" relative="1" as="geometry">
            <mxPoint x="244" y="540" as="sourcePoint" />
            <mxPoint x="294" y="490" as="targetPoint" />
          </mxGeometry>
        </mxCell>
        <mxCell id="019gNFiipb4_sZnPs868-22" value="" style="endArrow=none;html=1;rounded=0;entryX=1;entryY=0.5;entryDx=0;entryDy=0;" parent="1" source="019gNFiipb4_sZnPs868-3" target="019gNFiipb4_sZnPs868-19" edge="1">
          <mxGeometry width="50" height="50" relative="1" as="geometry">
            <mxPoint x="244" y="540" as="sourcePoint" />
            <mxPoint x="294" y="490" as="targetPoint" />
          </mxGeometry>
        </mxCell>
        <mxCell id="019gNFiipb4_sZnPs868-27" value="Работает с исполнением заказа" style="ellipse;whiteSpace=wrap;html=1;" parent="1" vertex="1">
          <mxGeometry x="450" y="660" width="140" height="70" as="geometry" />
        </mxCell>
        <mxCell id="019gNFiipb4_sZnPs868-31" value="" style="endArrow=none;html=1;rounded=0;entryX=1;entryY=0.5;entryDx=0;entryDy=0;" parent="1" source="019gNFiipb4_sZnPs868-4" target="019gNFiipb4_sZnPs868-27" edge="1">
          <mxGeometry width="50" height="50" relative="1" as="geometry">
            <mxPoint x="244" y="740" as="sourcePoint" />
            <mxPoint x="294" y="690" as="targetPoint" />
          </mxGeometry>
        </mxCell>
        <mxCell id="-SfFonaHhQ9GHqbQ9mGp-2" value="&amp;lt;&amp;lt;extend&amp;gt;&amp;gt;" style="html=1;verticalAlign=bottom;labelBackgroundColor=none;endArrow=open;endFill=0;dashed=1;rounded=0;entryX=0.5;entryY=0;entryDx=0;entryDy=0;exitX=0.5;exitY=1;exitDx=0;exitDy=0;" parent="1" source="019gNFiipb4_sZnPs868-18" target="019gNFiipb4_sZnPs868-27" edge="1">
          <mxGeometry width="160" relative="1" as="geometry">
            <mxPoint x="514" y="700" as="sourcePoint" />
            <mxPoint x="490" y="660" as="targetPoint" />
          </mxGeometry>
        </mxCell>
        <mxCell id="-SfFonaHhQ9GHqbQ9mGp-4" value="&amp;lt;&amp;lt;include&amp;gt;&amp;gt;" style="html=1;verticalAlign=bottom;labelBackgroundColor=none;endArrow=open;endFill=0;dashed=1;rounded=0;exitX=0.5;exitY=0;exitDx=0;exitDy=0;entryX=0.5;entryY=1;entryDx=0;entryDy=0;" parent="1" source="019gNFiipb4_sZnPs868-9" target="019gNFiipb4_sZnPs868-6" edge="1">
          <mxGeometry x="0.0789" y="-13" width="160" relative="1" as="geometry">
            <mxPoint x="330" y="660" as="sourcePoint" />
            <mxPoint x="490" y="660" as="targetPoint" />
            <mxPoint as="offset" />
          </mxGeometry>
        </mxCell>
        <mxCell id="NnuXDr9iRmmxUoQ3V_Y3-1" value="Работник склада" style="shape=umlActor;verticalLabelPosition=bottom;verticalAlign=top;html=1;" parent="1" vertex="1">
          <mxGeometry x="54" y="830" width="30" height="60" as="geometry" />
        </mxCell>
        <mxCell id="NnuXDr9iRmmxUoQ3V_Y3-2" value="" style="endArrow=none;html=1;rounded=0;entryX=0;entryY=0.5;entryDx=0;entryDy=0;" parent="1" source="NnuXDr9iRmmxUoQ3V_Y3-1" target="019gNFiipb4_sZnPs868-9" edge="1">
          <mxGeometry width="50" height="50" relative="1" as="geometry">
            <mxPoint x="300" y="850" as="sourcePoint" />
            <mxPoint x="350" y="800" as="targetPoint" />
          </mxGeometry>
        </mxCell>
      </root>
    </mxGraphModel>
  </diagram>
  <diagram id="vLhaDPEJ--xrPVBsMPyM" name="ДК">
    <mxGraphModel dx="2253" dy="785" grid="1" gridSize="10" guides="1" tooltips="1" connect="1" arrows="1" fold="1" page="1" pageScale="1" pageWidth="827" pageHeight="1169" math="0" shadow="0">
      <root>
        <mxCell id="0" />
        <mxCell id="1" parent="0" />
        <mxCell id="jrkufDFnhiuMYRwcvV4m-1" value="Компания" style="swimlane;fontStyle=1;align=center;verticalAlign=top;childLayout=stackLayout;horizontal=1;startSize=26;horizontalStack=0;resizeParent=1;resizeParentMax=0;resizeLast=0;collapsible=1;marginBottom=0;whiteSpace=wrap;html=1;" parent="1" vertex="1">
          <mxGeometry x="360" y="100" width="160" height="114" as="geometry" />
        </mxCell>
        <mxCell id="jrkufDFnhiuMYRwcvV4m-2" value="- Наименование&lt;div&gt;- Адрес&lt;/div&gt;&lt;div&gt;- Тип&lt;/div&gt;" style="text;strokeColor=none;fillColor=none;align=left;verticalAlign=top;spacingLeft=4;spacingRight=4;overflow=hidden;rotatable=0;points=[[0,0.5],[1,0.5]];portConstraint=eastwest;whiteSpace=wrap;html=1;" parent="jrkufDFnhiuMYRwcvV4m-1" vertex="1">
          <mxGeometry y="26" width="160" height="54" as="geometry" />
        </mxCell>
        <mxCell id="jrkufDFnhiuMYRwcvV4m-3" value="" style="line;strokeWidth=1;fillColor=none;align=left;verticalAlign=middle;spacingTop=-1;spacingLeft=3;spacingRight=3;rotatable=0;labelPosition=right;points=[];portConstraint=eastwest;strokeColor=inherit;" parent="jrkufDFnhiuMYRwcvV4m-1" vertex="1">
          <mxGeometry y="80" width="160" height="8" as="geometry" />
        </mxCell>
        <mxCell id="jrkufDFnhiuMYRwcvV4m-4" value="+ method(type): type" style="text;strokeColor=none;fillColor=none;align=left;verticalAlign=top;spacingLeft=4;spacingRight=4;overflow=hidden;rotatable=0;points=[[0,0.5],[1,0.5]];portConstraint=eastwest;whiteSpace=wrap;html=1;" parent="jrkufDFnhiuMYRwcvV4m-1" vertex="1">
          <mxGeometry y="88" width="160" height="26" as="geometry" />
        </mxCell>
        <mxCell id="jrkufDFnhiuMYRwcvV4m-9" value="Покупатель" style="swimlane;fontStyle=1;align=center;verticalAlign=top;childLayout=stackLayout;horizontal=1;startSize=26;horizontalStack=0;resizeParent=1;resizeParentMax=0;resizeLast=0;collapsible=1;marginBottom=0;whiteSpace=wrap;html=1;" parent="1" vertex="1">
          <mxGeometry x="-490" y="713" width="340" height="150" as="geometry" />
        </mxCell>
        <mxCell id="jrkufDFnhiuMYRwcvV4m-10" value="- ФИО&lt;div&gt;&lt;span style=&quot;background-color: transparent; color: light-dark(rgb(0, 0, 0), rgb(255, 255, 255));&quot;&gt;- Паспорт&lt;/span&gt;&lt;/div&gt;" style="text;strokeColor=none;fillColor=none;align=left;verticalAlign=top;spacingLeft=4;spacingRight=4;overflow=hidden;rotatable=0;points=[[0,0.5],[1,0.5]];portConstraint=eastwest;whiteSpace=wrap;html=1;" parent="jrkufDFnhiuMYRwcvV4m-9" vertex="1">
          <mxGeometry y="26" width="340" height="34" as="geometry" />
        </mxCell>
        <mxCell id="jrkufDFnhiuMYRwcvV4m-11" value="" style="line;strokeWidth=1;fillColor=none;align=left;verticalAlign=middle;spacingTop=-1;spacingLeft=3;spacingRight=3;rotatable=0;labelPosition=right;points=[];portConstraint=eastwest;strokeColor=inherit;" parent="jrkufDFnhiuMYRwcvV4m-9" vertex="1">
          <mxGeometry y="60" width="340" height="8" as="geometry" />
        </mxCell>
        <mxCell id="jrkufDFnhiuMYRwcvV4m-12" value="+&amp;nbsp;&lt;span style=&quot;font-size: 11px; text-align: center; text-wrap-mode: nowrap; background-color: rgb(255, 255, 255);&quot;&gt;ПолучитьКаталог()&lt;br&gt;+&amp;nbsp;&lt;/span&gt;&lt;span style=&quot;font-size: 11px; text-wrap-mode: nowrap; background-color: rgb(255, 255, 255);&quot;&gt;ВыбратьМебель(ИДМебели)&lt;br&gt;+&amp;nbsp;&lt;/span&gt;&lt;span style=&quot;font-size: 11px; text-wrap-mode: nowrap; background-color: rgb(255, 255, 255);&quot;&gt;ОтобразитьДанныеМебели(Наличие, вид, состав)&lt;br&gt;+&amp;nbsp;&lt;/span&gt;&lt;span style=&quot;font-size: 11px; text-wrap-mode: nowrap; background-color: rgb(255, 255, 255);&quot;&gt;ЗакрытьДанныеМебели()&lt;br&gt;+&amp;nbsp;&lt;/span&gt;&lt;span style=&quot;font-size: 11px; text-align: center; text-wrap-mode: nowrap; background-color: rgb(255, 255, 255);&quot;&gt;ПолучитьДанныеПаспорта(ИДПаспорта)&lt;br&gt;&lt;/span&gt;" style="text;strokeColor=none;fillColor=none;align=left;verticalAlign=top;spacingLeft=4;spacingRight=4;overflow=hidden;rotatable=0;points=[[0,0.5],[1,0.5]];portConstraint=eastwest;whiteSpace=wrap;html=1;" parent="jrkufDFnhiuMYRwcvV4m-9" vertex="1">
          <mxGeometry y="68" width="340" height="82" as="geometry" />
        </mxCell>
        <mxCell id="jrkufDFnhiuMYRwcvV4m-13" value="Менеджер" style="swimlane;fontStyle=1;align=center;verticalAlign=top;childLayout=stackLayout;horizontal=1;startSize=26;horizontalStack=0;resizeParent=1;resizeParentMax=0;resizeLast=0;collapsible=1;marginBottom=0;whiteSpace=wrap;html=1;" parent="1" vertex="1">
          <mxGeometry x="-190" y="243" width="490" height="180" as="geometry" />
        </mxCell>
        <mxCell id="jrkufDFnhiuMYRwcvV4m-14" value="- ФИО&lt;div&gt;- Подразделение&lt;/div&gt;" style="text;strokeColor=none;fillColor=none;align=left;verticalAlign=top;spacingLeft=4;spacingRight=4;overflow=hidden;rotatable=0;points=[[0,0.5],[1,0.5]];portConstraint=eastwest;whiteSpace=wrap;html=1;" parent="jrkufDFnhiuMYRwcvV4m-13" vertex="1">
          <mxGeometry y="26" width="490" height="34" as="geometry" />
        </mxCell>
        <mxCell id="jrkufDFnhiuMYRwcvV4m-15" value="" style="line;strokeWidth=1;fillColor=none;align=left;verticalAlign=middle;spacingTop=-1;spacingLeft=3;spacingRight=3;rotatable=0;labelPosition=right;points=[];portConstraint=eastwest;strokeColor=inherit;" parent="jrkufDFnhiuMYRwcvV4m-13" vertex="1">
          <mxGeometry y="60" width="490" height="8" as="geometry" />
        </mxCell>
        <mxCell id="jrkufDFnhiuMYRwcvV4m-16" value="+&amp;nbsp;&lt;span style=&quot;font-size: 11px; text-align: center; text-wrap-mode: nowrap; background-color: rgb(255, 255, 255);&quot;&gt;ПолучитьДанныеПокупателя(ИДПокупателя)&lt;br&gt;+&amp;nbsp;&lt;/span&gt;&lt;span style=&quot;font-size: 11px; text-align: center; text-wrap-mode: nowrap; background-color: rgb(255, 255, 255);&quot;&gt;ПолучитьКаталог(ИДКаталога)&lt;br&gt;+&amp;nbsp;&lt;/span&gt;&lt;span style=&quot;font-size: 11px; text-wrap-mode: nowrap; background-color: rgb(255, 255, 255);&quot;&gt;ПолучитьДанныеДляДоговора(ДанныеКлиента, ДанныеПаспорта, ДанныеМебели)&lt;br&gt;+&amp;nbsp;&lt;/span&gt;&lt;span style=&quot;font-size: 11px; text-align: center; text-wrap-mode: nowrap; background-color: rgb(255, 255, 255);&quot;&gt;ВнестиДанные()&lt;br&gt;+&amp;nbsp;&lt;/span&gt;&lt;span style=&quot;font-size: 11px; text-align: center; text-wrap-mode: nowrap; background-color: rgb(255, 255, 255);&quot;&gt;ПолучитьДанныеКлиента(ИДКлиента)&lt;/span&gt;" style="text;strokeColor=none;fillColor=none;align=left;verticalAlign=top;spacingLeft=4;spacingRight=4;overflow=hidden;rotatable=0;points=[[0,0.5],[1,0.5]];portConstraint=eastwest;whiteSpace=wrap;html=1;" parent="jrkufDFnhiuMYRwcvV4m-13" vertex="1">
          <mxGeometry y="68" width="490" height="112" as="geometry" />
        </mxCell>
        <mxCell id="jrkufDFnhiuMYRwcvV4m-17" value="Договор" style="swimlane;fontStyle=1;align=center;verticalAlign=top;childLayout=stackLayout;horizontal=1;startSize=26;horizontalStack=0;resizeParent=1;resizeParentMax=0;resizeLast=0;collapsible=1;marginBottom=0;whiteSpace=wrap;html=1;" parent="1" vertex="1">
          <mxGeometry x="-90" y="520" width="290" height="180" as="geometry" />
        </mxCell>
        <mxCell id="jrkufDFnhiuMYRwcvV4m-18" value="- Покупатель&lt;div&gt;- Менеджер&lt;/div&gt;&lt;div&gt;- Стоимость мебели&lt;/div&gt;&lt;div&gt;- Вид мебели&lt;/div&gt;" style="text;strokeColor=none;fillColor=none;align=left;verticalAlign=top;spacingLeft=4;spacingRight=4;overflow=hidden;rotatable=0;points=[[0,0.5],[1,0.5]];portConstraint=eastwest;whiteSpace=wrap;html=1;" parent="jrkufDFnhiuMYRwcvV4m-17" vertex="1">
          <mxGeometry y="26" width="290" height="74" as="geometry" />
        </mxCell>
        <mxCell id="jrkufDFnhiuMYRwcvV4m-19" value="" style="line;strokeWidth=1;fillColor=none;align=left;verticalAlign=middle;spacingTop=-1;spacingLeft=3;spacingRight=3;rotatable=0;labelPosition=right;points=[];portConstraint=eastwest;strokeColor=inherit;" parent="jrkufDFnhiuMYRwcvV4m-17" vertex="1">
          <mxGeometry y="100" width="290" height="8" as="geometry" />
        </mxCell>
        <mxCell id="jrkufDFnhiuMYRwcvV4m-20" value="+&amp;nbsp;&lt;span style=&quot;font-size: 11px; text-align: center; text-wrap-mode: nowrap; background-color: rgb(255, 255, 255);&quot;&gt;ПолучитьИнформациюОМебели(ИДМебели)&lt;br&gt;+&amp;nbsp;&lt;/span&gt;&lt;span style=&quot;font-size: 11px; text-align: center; text-wrap-mode: nowrap; background-color: rgb(255, 255, 255);&quot;&gt;ПолучитьИнформациюОПокупатели(ИДПокупателя)&lt;/span&gt;&lt;span style=&quot;font-size: 11px; text-align: center; text-wrap-mode: nowrap; background-color: rgb(255, 255, 255);&quot;&gt;&lt;br&gt;+&amp;nbsp;&lt;/span&gt;&lt;span style=&quot;font-size: 11px; text-wrap-mode: nowrap; background-color: rgb(255, 255, 255);&quot;&gt;СохранитьБД()&lt;/span&gt;" style="text;strokeColor=none;fillColor=none;align=left;verticalAlign=top;spacingLeft=4;spacingRight=4;overflow=hidden;rotatable=0;points=[[0,0.5],[1,0.5]];portConstraint=eastwest;whiteSpace=wrap;html=1;" parent="jrkufDFnhiuMYRwcvV4m-17" vertex="1">
          <mxGeometry y="108" width="290" height="72" as="geometry" />
        </mxCell>
        <mxCell id="jrkufDFnhiuMYRwcvV4m-21" value="Магазин" style="swimlane;fontStyle=1;align=center;verticalAlign=top;childLayout=stackLayout;horizontal=1;startSize=26;horizontalStack=0;resizeParent=1;resizeParentMax=0;resizeLast=0;collapsible=1;marginBottom=0;whiteSpace=wrap;html=1;" parent="1" vertex="1">
          <mxGeometry x="109" y="105" width="160" height="104" as="geometry" />
        </mxCell>
        <mxCell id="jrkufDFnhiuMYRwcvV4m-22" value="- Наименование&lt;div&gt;- Кол-во мебели&lt;/div&gt;" style="text;strokeColor=none;fillColor=none;align=left;verticalAlign=top;spacingLeft=4;spacingRight=4;overflow=hidden;rotatable=0;points=[[0,0.5],[1,0.5]];portConstraint=eastwest;whiteSpace=wrap;html=1;" parent="jrkufDFnhiuMYRwcvV4m-21" vertex="1">
          <mxGeometry y="26" width="160" height="44" as="geometry" />
        </mxCell>
        <mxCell id="jrkufDFnhiuMYRwcvV4m-23" value="" style="line;strokeWidth=1;fillColor=none;align=left;verticalAlign=middle;spacingTop=-1;spacingLeft=3;spacingRight=3;rotatable=0;labelPosition=right;points=[];portConstraint=eastwest;strokeColor=inherit;" parent="jrkufDFnhiuMYRwcvV4m-21" vertex="1">
          <mxGeometry y="70" width="160" height="8" as="geometry" />
        </mxCell>
        <mxCell id="jrkufDFnhiuMYRwcvV4m-24" value="+ method(type): type" style="text;strokeColor=none;fillColor=none;align=left;verticalAlign=top;spacingLeft=4;spacingRight=4;overflow=hidden;rotatable=0;points=[[0,0.5],[1,0.5]];portConstraint=eastwest;whiteSpace=wrap;html=1;" parent="jrkufDFnhiuMYRwcvV4m-21" vertex="1">
          <mxGeometry y="78" width="160" height="26" as="geometry" />
        </mxCell>
        <mxCell id="jrkufDFnhiuMYRwcvV4m-25" value="Паспорт" style="swimlane;fontStyle=1;align=center;verticalAlign=top;childLayout=stackLayout;horizontal=1;startSize=26;horizontalStack=0;resizeParent=1;resizeParentMax=0;resizeLast=0;collapsible=1;marginBottom=0;whiteSpace=wrap;html=1;" parent="1" vertex="1">
          <mxGeometry x="-400" y="953" width="160" height="134" as="geometry" />
        </mxCell>
        <mxCell id="jrkufDFnhiuMYRwcvV4m-26" value="- Серия&lt;div&gt;- Номер&lt;/div&gt;&lt;div&gt;- Кем выдан&lt;/div&gt;&lt;div&gt;- Когда выдан&lt;/div&gt;" style="text;strokeColor=none;fillColor=none;align=left;verticalAlign=top;spacingLeft=4;spacingRight=4;overflow=hidden;rotatable=0;points=[[0,0.5],[1,0.5]];portConstraint=eastwest;whiteSpace=wrap;html=1;" parent="jrkufDFnhiuMYRwcvV4m-25" vertex="1">
          <mxGeometry y="26" width="160" height="74" as="geometry" />
        </mxCell>
        <mxCell id="jrkufDFnhiuMYRwcvV4m-27" value="" style="line;strokeWidth=1;fillColor=none;align=left;verticalAlign=middle;spacingTop=-1;spacingLeft=3;spacingRight=3;rotatable=0;labelPosition=right;points=[];portConstraint=eastwest;strokeColor=inherit;" parent="jrkufDFnhiuMYRwcvV4m-25" vertex="1">
          <mxGeometry y="100" width="160" height="8" as="geometry" />
        </mxCell>
        <mxCell id="jrkufDFnhiuMYRwcvV4m-28" value="+ method(type): type" style="text;strokeColor=none;fillColor=none;align=left;verticalAlign=top;spacingLeft=4;spacingRight=4;overflow=hidden;rotatable=0;points=[[0,0.5],[1,0.5]];portConstraint=eastwest;whiteSpace=wrap;html=1;" parent="jrkufDFnhiuMYRwcvV4m-25" vertex="1">
          <mxGeometry y="108" width="160" height="26" as="geometry" />
        </mxCell>
        <mxCell id="jrkufDFnhiuMYRwcvV4m-29" value="Чек" style="swimlane;fontStyle=1;align=center;verticalAlign=top;childLayout=stackLayout;horizontal=1;startSize=26;horizontalStack=0;resizeParent=1;resizeParentMax=0;resizeLast=0;collapsible=1;marginBottom=0;whiteSpace=wrap;html=1;" parent="1" vertex="1">
          <mxGeometry x="-25" y="773" width="160" height="124" as="geometry" />
        </mxCell>
        <mxCell id="jrkufDFnhiuMYRwcvV4m-30" value="- Менеджер&lt;div&gt;- Цена&lt;/div&gt;&lt;div&gt;- Покупатель&lt;/div&gt;&lt;div&gt;- Дата платежа&lt;/div&gt;" style="text;strokeColor=none;fillColor=none;align=left;verticalAlign=top;spacingLeft=4;spacingRight=4;overflow=hidden;rotatable=0;points=[[0,0.5],[1,0.5]];portConstraint=eastwest;whiteSpace=wrap;html=1;" parent="jrkufDFnhiuMYRwcvV4m-29" vertex="1">
          <mxGeometry y="26" width="160" height="64" as="geometry" />
        </mxCell>
        <mxCell id="jrkufDFnhiuMYRwcvV4m-31" value="" style="line;strokeWidth=1;fillColor=none;align=left;verticalAlign=middle;spacingTop=-1;spacingLeft=3;spacingRight=3;rotatable=0;labelPosition=right;points=[];portConstraint=eastwest;strokeColor=inherit;" parent="jrkufDFnhiuMYRwcvV4m-29" vertex="1">
          <mxGeometry y="90" width="160" height="8" as="geometry" />
        </mxCell>
        <mxCell id="jrkufDFnhiuMYRwcvV4m-32" value="+ method(type): type" style="text;strokeColor=none;fillColor=none;align=left;verticalAlign=top;spacingLeft=4;spacingRight=4;overflow=hidden;rotatable=0;points=[[0,0.5],[1,0.5]];portConstraint=eastwest;whiteSpace=wrap;html=1;" parent="jrkufDFnhiuMYRwcvV4m-29" vertex="1">
          <mxGeometry y="98" width="160" height="26" as="geometry" />
        </mxCell>
        <mxCell id="jrkufDFnhiuMYRwcvV4m-46" value="" style="endArrow=none;html=1;rounded=0;entryX=0.499;entryY=1;entryDx=0;entryDy=0;entryPerimeter=0;" parent="1" target="jrkufDFnhiuMYRwcvV4m-4" edge="1">
          <mxGeometry width="50" height="50" relative="1" as="geometry">
            <mxPoint x="300" y="320" as="sourcePoint" />
            <mxPoint x="429" y="466" as="targetPoint" />
            <Array as="points">
              <mxPoint x="440" y="320" />
            </Array>
          </mxGeometry>
        </mxCell>
        <mxCell id="jrkufDFnhiuMYRwcvV4m-49" value="" style="endArrow=none;html=1;rounded=0;entryX=0.5;entryY=0;entryDx=0;entryDy=0;exitX=0.502;exitY=1.005;exitDx=0;exitDy=0;exitPerimeter=0;" parent="1" source="jrkufDFnhiuMYRwcvV4m-16" target="jrkufDFnhiuMYRwcvV4m-17" edge="1">
          <mxGeometry width="50" height="50" relative="1" as="geometry">
            <mxPoint x="99" y="406" as="sourcePoint" />
            <mxPoint x="389" y="386" as="targetPoint" />
          </mxGeometry>
        </mxCell>
        <mxCell id="jrkufDFnhiuMYRwcvV4m-52" value="" style="endArrow=none;html=1;rounded=0;entryX=0.5;entryY=0;entryDx=0;entryDy=0;exitX=0.502;exitY=0.993;exitDx=0;exitDy=0;exitPerimeter=0;" parent="1" source="jrkufDFnhiuMYRwcvV4m-20" target="jrkufDFnhiuMYRwcvV4m-29" edge="1">
          <mxGeometry width="50" height="50" relative="1" as="geometry">
            <mxPoint x="129" y="606" as="sourcePoint" />
            <mxPoint x="179" y="556" as="targetPoint" />
          </mxGeometry>
        </mxCell>
        <mxCell id="jrkufDFnhiuMYRwcvV4m-53" value="" style="endArrow=none;html=1;rounded=0;entryX=-0.008;entryY=0.992;entryDx=0;entryDy=0;entryPerimeter=0;exitX=0.5;exitY=0;exitDx=0;exitDy=0;" parent="1" source="jrkufDFnhiuMYRwcvV4m-9" target="jrkufDFnhiuMYRwcvV4m-18" edge="1">
          <mxGeometry width="50" height="50" relative="1" as="geometry">
            <mxPoint x="289" y="546" as="sourcePoint" />
            <mxPoint x="199" y="606" as="targetPoint" />
            <Array as="points">
              <mxPoint x="-320" y="620" />
            </Array>
          </mxGeometry>
        </mxCell>
        <mxCell id="jrkufDFnhiuMYRwcvV4m-54" value="" style="endArrow=none;html=1;rounded=0;entryX=0.5;entryY=0;entryDx=0;entryDy=0;exitX=0.5;exitY=1;exitDx=0;exitDy=0;" parent="1" source="jrkufDFnhiuMYRwcvV4m-9" target="jrkufDFnhiuMYRwcvV4m-25" edge="1">
          <mxGeometry width="50" height="50" relative="1" as="geometry">
            <mxPoint x="-51" y="896" as="sourcePoint" />
            <mxPoint x="359" y="676" as="targetPoint" />
          </mxGeometry>
        </mxCell>
        <mxCell id="jrkufDFnhiuMYRwcvV4m-56" value="" style="endArrow=none;html=1;rounded=0;entryX=1;entryY=0.5;entryDx=0;entryDy=0;exitX=0;exitY=0.5;exitDx=0;exitDy=0;" parent="1" source="jrkufDFnhiuMYRwcvV4m-2" target="jrkufDFnhiuMYRwcvV4m-22" edge="1">
          <mxGeometry width="50" height="50" relative="1" as="geometry">
            <mxPoint x="-51" y="456" as="sourcePoint" />
            <mxPoint x="-1" y="406" as="targetPoint" />
          </mxGeometry>
        </mxCell>
        <mxCell id="fmfDwDWyq-f7zexHbd7l-1" value="Мебель" style="swimlane;fontStyle=0;childLayout=stackLayout;horizontal=1;startSize=30;horizontalStack=0;resizeParent=1;resizeParentMax=0;resizeLast=0;collapsible=1;marginBottom=0;whiteSpace=wrap;html=1;" parent="1" vertex="1">
          <mxGeometry x="350" y="595" width="140" height="120" as="geometry" />
        </mxCell>
        <mxCell id="fmfDwDWyq-f7zexHbd7l-2" value="- Мебели" style="text;strokeColor=none;fillColor=none;align=left;verticalAlign=middle;spacingLeft=4;spacingRight=4;overflow=hidden;points=[[0,0.5],[1,0.5]];portConstraint=eastwest;rotatable=0;whiteSpace=wrap;html=1;" parent="fmfDwDWyq-f7zexHbd7l-1" vertex="1">
          <mxGeometry y="30" width="140" height="30" as="geometry" />
        </mxCell>
        <mxCell id="fmfDwDWyq-f7zexHbd7l-4" value="- Наличие" style="text;strokeColor=none;fillColor=none;align=left;verticalAlign=middle;spacingLeft=4;spacingRight=4;overflow=hidden;points=[[0,0.5],[1,0.5]];portConstraint=eastwest;rotatable=0;whiteSpace=wrap;html=1;" parent="fmfDwDWyq-f7zexHbd7l-1" vertex="1">
          <mxGeometry y="60" width="140" height="30" as="geometry" />
        </mxCell>
        <mxCell id="fmfDwDWyq-f7zexHbd7l-5" value="- Характеристика" style="text;strokeColor=none;fillColor=none;align=left;verticalAlign=middle;spacingLeft=4;spacingRight=4;overflow=hidden;points=[[0,0.5],[1,0.5]];portConstraint=eastwest;rotatable=0;whiteSpace=wrap;html=1;" parent="fmfDwDWyq-f7zexHbd7l-1" vertex="1">
          <mxGeometry y="90" width="140" height="30" as="geometry" />
        </mxCell>
        <mxCell id="fmfDwDWyq-f7zexHbd7l-6" value="тип мебели" style="swimlane;fontStyle=0;childLayout=stackLayout;horizontal=1;startSize=30;horizontalStack=0;resizeParent=1;resizeParentMax=0;resizeLast=0;collapsible=1;marginBottom=0;whiteSpace=wrap;html=1;" parent="1" vertex="1">
          <mxGeometry x="560" y="630" width="140" height="90" as="geometry" />
        </mxCell>
        <mxCell id="fmfDwDWyq-f7zexHbd7l-7" value="ИД мебели" style="text;strokeColor=none;fillColor=none;align=left;verticalAlign=middle;spacingLeft=4;spacingRight=4;overflow=hidden;points=[[0,0.5],[1,0.5]];portConstraint=eastwest;rotatable=0;whiteSpace=wrap;html=1;" parent="fmfDwDWyq-f7zexHbd7l-6" vertex="1">
          <mxGeometry y="30" width="140" height="30" as="geometry" />
        </mxCell>
        <mxCell id="fmfDwDWyq-f7zexHbd7l-8" value="Тип мебели" style="text;strokeColor=none;fillColor=none;align=left;verticalAlign=middle;spacingLeft=4;spacingRight=4;overflow=hidden;points=[[0,0.5],[1,0.5]];portConstraint=eastwest;rotatable=0;whiteSpace=wrap;html=1;" parent="fmfDwDWyq-f7zexHbd7l-6" vertex="1">
          <mxGeometry y="60" width="140" height="30" as="geometry" />
        </mxCell>
        <mxCell id="ce-7iIGSauLZTssf15SJ-2" value="" style="endArrow=none;html=1;rounded=0;exitX=1.003;exitY=0.719;exitDx=0;exitDy=0;exitPerimeter=0;entryX=0;entryY=0.5;entryDx=0;entryDy=0;" parent="1" source="jrkufDFnhiuMYRwcvV4m-18" edge="1">
          <mxGeometry width="50" height="50" relative="1" as="geometry">
            <mxPoint x="250" y="570" as="sourcePoint" />
            <mxPoint x="350.0000000000002" y="670" as="targetPoint" />
            <Array as="points">
              <mxPoint x="260" y="600" />
              <mxPoint x="260" y="670" />
            </Array>
          </mxGeometry>
        </mxCell>
        <mxCell id="ce-7iIGSauLZTssf15SJ-3" value="" style="endArrow=none;html=1;rounded=0;entryX=1;entryY=0.5;entryDx=0;entryDy=0;exitX=-0.013;exitY=0.322;exitDx=0;exitDy=0;exitPerimeter=0;" parent="1" source="fmfDwDWyq-f7zexHbd7l-7" target="fmfDwDWyq-f7zexHbd7l-4" edge="1">
          <mxGeometry width="50" height="50" relative="1" as="geometry">
            <mxPoint x="300" y="710" as="sourcePoint" />
            <mxPoint x="350" y="660" as="targetPoint" />
          </mxGeometry>
        </mxCell>
      </root>
    </mxGraphModel>
  </diagram>
  <diagram id="9dej761RBNCEpuY-AGXJ" name="ДД Работает с абонементами">
    <mxGraphModel dx="1426" dy="785" grid="1" gridSize="10" guides="1" tooltips="1" connect="1" arrows="1" fold="1" page="1" pageScale="1" pageWidth="827" pageHeight="1169" math="0" shadow="0">
      <root>
        <mxCell id="0" />
        <mxCell id="1" parent="0" />
        <mxCell id="lZq_mcnqFe8Zwof6JR2_-53" value="" style="ellipse;html=1;shape=startState;fillColor=#000000;strokeColor=#ff0000;" parent="1" vertex="1">
          <mxGeometry x="340" y="110" width="30" height="30" as="geometry" />
        </mxCell>
        <mxCell id="lZq_mcnqFe8Zwof6JR2_-54" value="" style="edgeStyle=orthogonalEdgeStyle;html=1;verticalAlign=bottom;endArrow=open;endSize=8;strokeColor=#ff0000;rounded=0;" parent="1" source="lZq_mcnqFe8Zwof6JR2_-53" edge="1">
          <mxGeometry relative="1" as="geometry">
            <mxPoint x="354" y="200" as="targetPoint" />
          </mxGeometry>
        </mxCell>
        <mxCell id="lZq_mcnqFe8Zwof6JR2_-55" value="" style="rhombus;whiteSpace=wrap;html=1;fontColor=#000000;fillColor=#ffffc0;strokeColor=#ff0000;" parent="1" vertex="1">
          <mxGeometry x="315" y="200" width="80" height="40" as="geometry" />
        </mxCell>
        <mxCell id="lZq_mcnqFe8Zwof6JR2_-56" value="" style="edgeStyle=orthogonalEdgeStyle;html=1;align=left;verticalAlign=top;endArrow=open;endSize=8;strokeColor=#ff0000;rounded=0;" parent="1" source="lZq_mcnqFe8Zwof6JR2_-55" edge="1">
          <mxGeometry x="-1" relative="1" as="geometry">
            <mxPoint x="355" y="300" as="targetPoint" />
          </mxGeometry>
        </mxCell>
        <mxCell id="lZq_mcnqFe8Zwof6JR2_-57" value="Отображает информацию о закупленной мебели" style="rounded=1;whiteSpace=wrap;html=1;arcSize=40;fontColor=#000000;fillColor=#ffffc0;strokeColor=#ff0000;" parent="1" vertex="1">
          <mxGeometry x="280" y="300" width="150" height="50" as="geometry" />
        </mxCell>
        <mxCell id="lZq_mcnqFe8Zwof6JR2_-58" value="" style="edgeStyle=orthogonalEdgeStyle;html=1;verticalAlign=bottom;endArrow=open;endSize=8;strokeColor=#ff0000;rounded=0;" parent="1" source="lZq_mcnqFe8Zwof6JR2_-57" edge="1">
          <mxGeometry relative="1" as="geometry">
            <mxPoint x="355" y="400" as="targetPoint" />
          </mxGeometry>
        </mxCell>
        <mxCell id="lZq_mcnqFe8Zwof6JR2_-59" value="" style="rhombus;whiteSpace=wrap;html=1;fontColor=#000000;fillColor=#ffffc0;strokeColor=#ff0000;" parent="1" vertex="1">
          <mxGeometry x="315" y="400" width="80" height="40" as="geometry" />
        </mxCell>
        <mxCell id="lZq_mcnqFe8Zwof6JR2_-60" value="[Мебель не закуплена]" style="edgeStyle=orthogonalEdgeStyle;html=1;align=left;verticalAlign=bottom;endArrow=open;endSize=8;strokeColor=#ff0000;rounded=0;entryX=1;entryY=0.5;entryDx=0;entryDy=0;" parent="1" source="lZq_mcnqFe8Zwof6JR2_-59" target="lZq_mcnqFe8Zwof6JR2_-55" edge="1">
          <mxGeometry x="-1" relative="1" as="geometry">
            <mxPoint x="495" y="420" as="targetPoint" />
            <Array as="points">
              <mxPoint x="625" y="420" />
              <mxPoint x="625" y="220" />
            </Array>
          </mxGeometry>
        </mxCell>
        <mxCell id="lZq_mcnqFe8Zwof6JR2_-61" value="" style="edgeStyle=orthogonalEdgeStyle;html=1;align=left;verticalAlign=top;endArrow=open;endSize=8;strokeColor=#ff0000;rounded=0;entryX=0.5;entryY=0;entryDx=0;entryDy=0;" parent="1" source="lZq_mcnqFe8Zwof6JR2_-59" target="lZq_mcnqFe8Zwof6JR2_-63" edge="1">
          <mxGeometry x="-1" relative="1" as="geometry">
            <mxPoint x="355" y="500" as="targetPoint" />
          </mxGeometry>
        </mxCell>
        <mxCell id="lZq_mcnqFe8Zwof6JR2_-62" value="[Мебель куплена]" style="edgeLabel;html=1;align=center;verticalAlign=middle;resizable=0;points=[];" parent="lZq_mcnqFe8Zwof6JR2_-61" vertex="1" connectable="0">
          <mxGeometry x="-0.3249" y="1" relative="1" as="geometry">
            <mxPoint as="offset" />
          </mxGeometry>
        </mxCell>
        <mxCell id="lZq_mcnqFe8Zwof6JR2_-63" value="Отображает форму для ввода информации о новой мебели" style="rounded=1;whiteSpace=wrap;html=1;arcSize=40;fontColor=#000000;fillColor=#ffffc0;strokeColor=#ff0000;" parent="1" vertex="1">
          <mxGeometry x="280" y="490" width="150" height="50" as="geometry" />
        </mxCell>
        <mxCell id="lZq_mcnqFe8Zwof6JR2_-64" value="" style="edgeStyle=orthogonalEdgeStyle;html=1;verticalAlign=bottom;endArrow=open;endSize=8;strokeColor=#ff0000;rounded=0;" parent="1" source="lZq_mcnqFe8Zwof6JR2_-63" edge="1">
          <mxGeometry relative="1" as="geometry">
            <mxPoint x="355" y="600" as="targetPoint" />
          </mxGeometry>
        </mxCell>
        <mxCell id="lZq_mcnqFe8Zwof6JR2_-65" value="Получает информацию" style="rounded=1;whiteSpace=wrap;html=1;arcSize=40;fontColor=#000000;fillColor=#ffffc0;strokeColor=#ff0000;" parent="1" vertex="1">
          <mxGeometry x="295" y="700" width="120" height="40" as="geometry" />
        </mxCell>
        <mxCell id="lZq_mcnqFe8Zwof6JR2_-66" value="" style="edgeStyle=orthogonalEdgeStyle;html=1;verticalAlign=bottom;endArrow=open;endSize=8;strokeColor=#ff0000;rounded=0;" parent="1" source="lZq_mcnqFe8Zwof6JR2_-65" edge="1">
          <mxGeometry relative="1" as="geometry">
            <mxPoint x="355" y="800" as="targetPoint" />
          </mxGeometry>
        </mxCell>
        <mxCell id="lZq_mcnqFe8Zwof6JR2_-67" value="" style="rhombus;whiteSpace=wrap;html=1;fontColor=#000000;fillColor=#ffffc0;strokeColor=#ff0000;" parent="1" vertex="1">
          <mxGeometry x="315" y="600" width="80" height="40" as="geometry" />
        </mxCell>
        <mxCell id="lZq_mcnqFe8Zwof6JR2_-68" value="" style="edgeStyle=orthogonalEdgeStyle;html=1;align=left;verticalAlign=top;endArrow=open;endSize=8;strokeColor=#ff0000;rounded=0;" parent="1" source="lZq_mcnqFe8Zwof6JR2_-67" edge="1">
          <mxGeometry x="-1" relative="1" as="geometry">
            <mxPoint x="355" y="700" as="targetPoint" />
          </mxGeometry>
        </mxCell>
        <mxCell id="lZq_mcnqFe8Zwof6JR2_-69" value="" style="rhombus;whiteSpace=wrap;html=1;fontColor=#000000;fillColor=#ffffc0;strokeColor=#ff0000;" parent="1" vertex="1">
          <mxGeometry x="315" y="800" width="80" height="40" as="geometry" />
        </mxCell>
        <mxCell id="lZq_mcnqFe8Zwof6JR2_-70" value="[Сохранить]" style="edgeStyle=orthogonalEdgeStyle;html=1;align=left;verticalAlign=bottom;endArrow=open;endSize=8;strokeColor=#ff0000;rounded=0;" parent="1" source="lZq_mcnqFe8Zwof6JR2_-69" edge="1">
          <mxGeometry x="-1" relative="1" as="geometry">
            <mxPoint x="495" y="820" as="targetPoint" />
          </mxGeometry>
        </mxCell>
        <mxCell id="lZq_mcnqFe8Zwof6JR2_-71" value="[Не сохранять]" style="edgeStyle=orthogonalEdgeStyle;html=1;align=left;verticalAlign=top;endArrow=open;endSize=8;strokeColor=#ff0000;rounded=0;" parent="1" source="lZq_mcnqFe8Zwof6JR2_-69" edge="1">
          <mxGeometry x="-1" relative="1" as="geometry">
            <mxPoint x="355" y="900" as="targetPoint" />
          </mxGeometry>
        </mxCell>
        <mxCell id="lZq_mcnqFe8Zwof6JR2_-72" value="Сохраняет информацию" style="rounded=1;whiteSpace=wrap;html=1;arcSize=40;fontColor=#000000;fillColor=#ffffc0;strokeColor=#ff0000;" parent="1" vertex="1">
          <mxGeometry x="495" y="800" width="120" height="40" as="geometry" />
        </mxCell>
        <mxCell id="lZq_mcnqFe8Zwof6JR2_-73" value="" style="edgeStyle=orthogonalEdgeStyle;html=1;verticalAlign=bottom;endArrow=open;endSize=8;strokeColor=#ff0000;rounded=0;entryX=1;entryY=0.5;entryDx=0;entryDy=0;" parent="1" source="lZq_mcnqFe8Zwof6JR2_-72" target="lZq_mcnqFe8Zwof6JR2_-74" edge="1">
          <mxGeometry relative="1" as="geometry">
            <mxPoint x="555" y="900" as="targetPoint" />
            <Array as="points">
              <mxPoint x="555" y="920" />
            </Array>
          </mxGeometry>
        </mxCell>
        <mxCell id="lZq_mcnqFe8Zwof6JR2_-74" value="" style="rhombus;whiteSpace=wrap;html=1;fontColor=#000000;fillColor=#ffffc0;strokeColor=#ff0000;" parent="1" vertex="1">
          <mxGeometry x="315" y="900" width="80" height="40" as="geometry" />
        </mxCell>
        <mxCell id="lZq_mcnqFe8Zwof6JR2_-75" value="" style="edgeStyle=orthogonalEdgeStyle;html=1;align=left;verticalAlign=top;endArrow=open;endSize=8;strokeColor=#ff0000;rounded=0;" parent="1" source="lZq_mcnqFe8Zwof6JR2_-74" edge="1">
          <mxGeometry x="-1" relative="1" as="geometry">
            <mxPoint x="355" y="1000" as="targetPoint" />
          </mxGeometry>
        </mxCell>
        <mxCell id="lZq_mcnqFe8Zwof6JR2_-76" value="" style="ellipse;html=1;shape=endState;fillColor=#000000;strokeColor=#ff0000;" parent="1" vertex="1">
          <mxGeometry x="340" y="1000" width="30" height="30" as="geometry" />
        </mxCell>
        <mxCell id="lZq_mcnqFe8Zwof6JR2_-77" value="Обновление каталога" style="rounded=0;whiteSpace=wrap;html=1;" parent="1" vertex="1">
          <mxGeometry x="293" y="20" width="120" height="60" as="geometry" />
        </mxCell>
      </root>
    </mxGraphModel>
  </diagram>
  <diagram id="W6eI8lGqyHqf0CIbNcjb" name="ДП Просматривает каталог">
    <mxGraphModel dx="1426" dy="785" grid="1" gridSize="10" guides="1" tooltips="1" connect="1" arrows="1" fold="1" page="1" pageScale="1" pageWidth="827" pageHeight="1169" math="0" shadow="0">
      <root>
        <mxCell id="0" />
        <mxCell id="1" parent="0" />
        <mxCell id="8qrBqxy2BH19mtc6Msm4-3" value="Мебель" style="shape=umlLifeline;perimeter=lifelinePerimeter;whiteSpace=wrap;html=1;container=1;dropTarget=0;collapsible=0;recursiveResize=0;outlineConnect=0;portConstraint=eastwest;newEdgeStyle={&quot;curved&quot;:0,&quot;rounded&quot;:0};" parent="1" vertex="1">
          <mxGeometry x="680" y="40" width="100" height="560" as="geometry" />
        </mxCell>
        <mxCell id="ulZsizl006LGB_u3oC1R-1" value="" style="html=1;points=[[0,0,0,0,5],[0,1,0,0,-5],[1,0,0,0,5],[1,1,0,0,-5]];perimeter=orthogonalPerimeter;outlineConnect=0;targetShapes=umlLifeline;portConstraint=eastwest;newEdgeStyle={&quot;curved&quot;:0,&quot;rounded&quot;:0};" parent="8qrBqxy2BH19mtc6Msm4-3" vertex="1">
          <mxGeometry x="45" y="128" width="10" height="80" as="geometry" />
        </mxCell>
        <mxCell id="8qrBqxy2BH19mtc6Msm4-4" value="Покупатель" style="shape=umlLifeline;perimeter=lifelinePerimeter;whiteSpace=wrap;html=1;container=1;dropTarget=0;collapsible=0;recursiveResize=0;outlineConnect=0;portConstraint=eastwest;newEdgeStyle={&quot;curved&quot;:0,&quot;rounded&quot;:0};" parent="1" vertex="1">
          <mxGeometry x="60" y="40" width="100" height="560" as="geometry" />
        </mxCell>
        <mxCell id="Kg3Zv2Aak2Oi_8E4n4e5-1" value="" style="html=1;points=[[0,0,0,0,5],[0,1,0,0,-5],[1,0,0,0,5],[1,1,0,0,-5]];perimeter=orthogonalPerimeter;outlineConnect=0;targetShapes=umlLifeline;portConstraint=eastwest;newEdgeStyle={&quot;curved&quot;:0,&quot;rounded&quot;:0};" parent="8qrBqxy2BH19mtc6Msm4-4" vertex="1">
          <mxGeometry x="45" y="70" width="10" height="470" as="geometry" />
        </mxCell>
        <mxCell id="ulZsizl006LGB_u3oC1R-10" value="" style="html=1;points=[[0,0,0,0,5],[0,1,0,0,-5],[1,0,0,0,5],[1,1,0,0,-5]];perimeter=orthogonalPerimeter;outlineConnect=0;targetShapes=umlLifeline;portConstraint=eastwest;newEdgeStyle={&quot;curved&quot;:0,&quot;rounded&quot;:0};" parent="8qrBqxy2BH19mtc6Msm4-4" vertex="1">
          <mxGeometry x="50" y="130" width="10" height="30" as="geometry" />
        </mxCell>
        <mxCell id="ulZsizl006LGB_u3oC1R-11" value="ВыбратьМебель(ИДМебели)" style="html=1;align=left;spacingLeft=2;endArrow=block;rounded=0;edgeStyle=orthogonalEdgeStyle;curved=0;rounded=0;" parent="8qrBqxy2BH19mtc6Msm4-4" target="ulZsizl006LGB_u3oC1R-10" edge="1">
          <mxGeometry relative="1" as="geometry">
            <mxPoint x="55" y="110" as="sourcePoint" />
            <Array as="points">
              <mxPoint x="85" y="140" />
            </Array>
          </mxGeometry>
        </mxCell>
        <mxCell id="ulZsizl006LGB_u3oC1R-14" value="" style="html=1;points=[[0,0,0,0,5],[0,1,0,0,-5],[1,0,0,0,5],[1,1,0,0,-5]];perimeter=orthogonalPerimeter;outlineConnect=0;targetShapes=umlLifeline;portConstraint=eastwest;newEdgeStyle={&quot;curved&quot;:0,&quot;rounded&quot;:0};" parent="8qrBqxy2BH19mtc6Msm4-4" vertex="1">
          <mxGeometry x="50" y="400" width="10" height="40" as="geometry" />
        </mxCell>
        <mxCell id="ulZsizl006LGB_u3oC1R-15" value="ОтобразитьИнформациюОМебели" style="html=1;align=left;spacingLeft=2;endArrow=block;rounded=0;edgeStyle=orthogonalEdgeStyle;curved=0;rounded=0;" parent="8qrBqxy2BH19mtc6Msm4-4" target="ulZsizl006LGB_u3oC1R-14" edge="1">
          <mxGeometry relative="1" as="geometry">
            <mxPoint x="55" y="380" as="sourcePoint" />
            <Array as="points">
              <mxPoint x="85" y="410" />
            </Array>
          </mxGeometry>
        </mxCell>
        <mxCell id="ulZsizl006LGB_u3oC1R-23" value="" style="html=1;points=[[0,0,0,0,5],[0,1,0,0,-5],[1,0,0,0,5],[1,1,0,0,-5]];perimeter=orthogonalPerimeter;outlineConnect=0;targetShapes=umlLifeline;portConstraint=eastwest;newEdgeStyle={&quot;curved&quot;:0,&quot;rounded&quot;:0};" parent="8qrBqxy2BH19mtc6Msm4-4" vertex="1">
          <mxGeometry x="50" y="477" width="10" height="40" as="geometry" />
        </mxCell>
        <mxCell id="ulZsizl006LGB_u3oC1R-24" value="ЗакрытьИнформациюОМебели()" style="html=1;align=left;spacingLeft=2;endArrow=block;rounded=0;edgeStyle=orthogonalEdgeStyle;curved=0;rounded=0;" parent="8qrBqxy2BH19mtc6Msm4-4" target="ulZsizl006LGB_u3oC1R-23" edge="1">
          <mxGeometry relative="1" as="geometry">
            <mxPoint x="55" y="457" as="sourcePoint" />
            <Array as="points">
              <mxPoint x="85" y="487" />
            </Array>
          </mxGeometry>
        </mxCell>
        <mxCell id="Kg3Zv2Aak2Oi_8E4n4e5-3" style="edgeStyle=orthogonalEdgeStyle;rounded=0;orthogonalLoop=1;jettySize=auto;html=1;curved=0;" parent="1" edge="1">
          <mxGeometry relative="1" as="geometry">
            <mxPoint x="115" y="134" as="sourcePoint" />
            <mxPoint x="411.5" y="135" as="targetPoint" />
            <Array as="points">
              <mxPoint x="239" y="135" />
            </Array>
          </mxGeometry>
        </mxCell>
        <mxCell id="Kg3Zv2Aak2Oi_8E4n4e5-4" value="ПолучитьКаталог()" style="edgeLabel;html=1;align=center;verticalAlign=middle;resizable=0;points=[];" parent="Kg3Zv2Aak2Oi_8E4n4e5-3" vertex="1" connectable="0">
          <mxGeometry x="-0.1818" relative="1" as="geometry">
            <mxPoint x="20" as="offset" />
          </mxGeometry>
        </mxCell>
        <mxCell id="ulZsizl006LGB_u3oC1R-2" style="edgeStyle=orthogonalEdgeStyle;rounded=0;orthogonalLoop=1;jettySize=auto;html=1;curved=0;" parent="1" target="ulZsizl006LGB_u3oC1R-1" edge="1">
          <mxGeometry relative="1" as="geometry">
            <mxPoint x="417" y="210" as="sourcePoint" />
            <mxPoint x="670" y="200.0044827586207" as="targetPoint" />
            <Array as="points">
              <mxPoint x="542" y="210" />
              <mxPoint x="542" y="208" />
            </Array>
          </mxGeometry>
        </mxCell>
        <mxCell id="ulZsizl006LGB_u3oC1R-3" value="ПолучитьИнформациюОМебели(ИДМебели)" style="edgeLabel;html=1;align=center;verticalAlign=middle;resizable=0;points=[];" parent="ulZsizl006LGB_u3oC1R-2" vertex="1" connectable="0">
          <mxGeometry x="0.001" y="1" relative="1" as="geometry">
            <mxPoint as="offset" />
          </mxGeometry>
        </mxCell>
      </root>
    </mxGraphModel>
  </diagram>
  <diagram id="FWu8Xl4fCJWy3EQfxSvi" name="ДП Работает с каталогом">
    <mxGraphModel dx="1426" dy="785" grid="1" gridSize="10" guides="1" tooltips="1" connect="1" arrows="1" fold="1" page="1" pageScale="1" pageWidth="827" pageHeight="1169" math="0" shadow="0">
      <root>
        <mxCell id="0" />
        <mxCell id="1" parent="0" />
        <mxCell id="37s7Sn1rzA_51NAi0eEY-2" value="Мебель" style="shape=umlLifeline;perimeter=lifelinePerimeter;whiteSpace=wrap;html=1;container=1;dropTarget=0;collapsible=0;recursiveResize=0;outlineConnect=0;portConstraint=eastwest;newEdgeStyle={&quot;curved&quot;:0,&quot;rounded&quot;:0};" parent="1" vertex="1">
          <mxGeometry x="570" y="40" width="100" height="520" as="geometry" />
        </mxCell>
        <mxCell id="UXfXYXLZ1ztGNdtHhlZY-1" value="" style="html=1;points=[[0,0,0,0,5],[0,1,0,0,-5],[1,0,0,0,5],[1,1,0,0,-5]];perimeter=orthogonalPerimeter;outlineConnect=0;targetShapes=umlLifeline;portConstraint=eastwest;newEdgeStyle={&quot;curved&quot;:0,&quot;rounded&quot;:0};" parent="37s7Sn1rzA_51NAi0eEY-2" vertex="1">
          <mxGeometry x="45" y="70" width="10" height="80" as="geometry" />
        </mxCell>
        <mxCell id="37s7Sn1rzA_51NAi0eEY-3" value="Покупатель" style="shape=umlLifeline;perimeter=lifelinePerimeter;whiteSpace=wrap;html=1;container=1;dropTarget=0;collapsible=0;recursiveResize=0;outlineConnect=0;portConstraint=eastwest;newEdgeStyle={&quot;curved&quot;:0,&quot;rounded&quot;:0};" parent="1" vertex="1">
          <mxGeometry x="300" y="40" width="100" height="520" as="geometry" />
        </mxCell>
        <mxCell id="6PGH7BBXkkcwMekRTACr-1" value="" style="html=1;points=[[0,0,0,0,5],[0,1,0,0,-5],[1,0,0,0,5],[1,1,0,0,-5]];perimeter=orthogonalPerimeter;outlineConnect=0;targetShapes=umlLifeline;portConstraint=eastwest;newEdgeStyle={&quot;curved&quot;:0,&quot;rounded&quot;:0};" parent="37s7Sn1rzA_51NAi0eEY-3" vertex="1">
          <mxGeometry x="45" y="70" width="10" height="160" as="geometry" />
        </mxCell>
        <mxCell id="6PGH7BBXkkcwMekRTACr-2" style="edgeStyle=orthogonalEdgeStyle;rounded=0;orthogonalLoop=1;jettySize=auto;html=1;curved=0;" parent="1" edge="1">
          <mxGeometry relative="1" as="geometry">
            <mxPoint x="95" y="119.99999999999977" as="sourcePoint" />
            <mxPoint x="349.4999999999998" y="120.04347826086962" as="targetPoint" />
            <Array as="points">
              <mxPoint x="270" y="120" />
              <mxPoint x="270" y="120" />
            </Array>
          </mxGeometry>
        </mxCell>
        <mxCell id="YgOVRHbER5lLn0Yrby79-1" value="ПолучитьДанныеОКаталоге(ИДКаталога)" style="edgeLabel;html=1;align=center;verticalAlign=middle;resizable=0;points=[];" parent="6PGH7BBXkkcwMekRTACr-2" vertex="1" connectable="0">
          <mxGeometry x="-0.246" y="-2" relative="1" as="geometry">
            <mxPoint x="30" as="offset" />
          </mxGeometry>
        </mxCell>
        <mxCell id="UXfXYXLZ1ztGNdtHhlZY-3" style="edgeStyle=orthogonalEdgeStyle;rounded=0;orthogonalLoop=1;jettySize=auto;html=1;curved=0;" parent="1" source="6PGH7BBXkkcwMekRTACr-1" target="UXfXYXLZ1ztGNdtHhlZY-1" edge="1">
          <mxGeometry relative="1" as="geometry">
            <Array as="points">
              <mxPoint x="400" y="150" />
              <mxPoint x="400" y="150" />
            </Array>
          </mxGeometry>
        </mxCell>
        <mxCell id="UXfXYXLZ1ztGNdtHhlZY-5" value="ПолучитьДанныеОМебели(ИДМебели)" style="edgeLabel;html=1;align=center;verticalAlign=middle;resizable=0;points=[];" parent="UXfXYXLZ1ztGNdtHhlZY-3" vertex="1" connectable="0">
          <mxGeometry x="-0.1223" relative="1" as="geometry">
            <mxPoint x="11" as="offset" />
          </mxGeometry>
        </mxCell>
        <mxCell id="UXfXYXLZ1ztGNdtHhlZY-8" style="edgeStyle=orthogonalEdgeStyle;rounded=0;orthogonalLoop=1;jettySize=auto;html=1;curved=0;" parent="1" edge="1">
          <mxGeometry relative="1" as="geometry">
            <Array as="points">
              <mxPoint x="330" y="310" />
              <mxPoint x="330" y="310" />
            </Array>
            <mxPoint x="95" y="310" as="sourcePoint" />
            <mxPoint x="765" y="310" as="targetPoint" />
          </mxGeometry>
        </mxCell>
        <mxCell id="UXfXYXLZ1ztGNdtHhlZY-9" value="ПолучитьОтчет(ИДОтчет)" style="edgeLabel;html=1;align=center;verticalAlign=middle;resizable=0;points=[];" parent="UXfXYXLZ1ztGNdtHhlZY-8" vertex="1" connectable="0">
          <mxGeometry x="-0.7614" relative="1" as="geometry">
            <mxPoint x="39" as="offset" />
          </mxGeometry>
        </mxCell>
        <mxCell id="UXfXYXLZ1ztGNdtHhlZY-15" style="edgeStyle=orthogonalEdgeStyle;rounded=0;orthogonalLoop=1;jettySize=auto;html=1;curved=0;" parent="1" edge="1">
          <mxGeometry relative="1" as="geometry">
            <Array as="points">
              <mxPoint x="350" y="450" />
              <mxPoint x="350" y="450" />
            </Array>
            <mxPoint x="95" y="450" as="sourcePoint" />
            <mxPoint x="902" y="450" as="targetPoint" />
          </mxGeometry>
        </mxCell>
        <mxCell id="UXfXYXLZ1ztGNdtHhlZY-16" value="ВнестиДанные()" style="edgeLabel;html=1;align=center;verticalAlign=middle;resizable=0;points=[];" parent="UXfXYXLZ1ztGNdtHhlZY-15" vertex="1" connectable="0">
          <mxGeometry x="0.0207" y="-3" relative="1" as="geometry">
            <mxPoint x="-344" as="offset" />
          </mxGeometry>
        </mxCell>
      </root>
    </mxGraphModel>
  </diagram>
  <diagram id="Bcxjvq5aYvkbXhusiZjc" name="ДП Работает с исполнением заказа">
    <mxGraphModel dx="1426" dy="785" grid="1" gridSize="10" guides="1" tooltips="1" connect="1" arrows="1" fold="1" page="1" pageScale="1" pageWidth="827" pageHeight="1169" math="0" shadow="0">
      <root>
        <mxCell id="0" />
        <mxCell id="1" parent="0" />
        <mxCell id="FBocLN2tNAdrAwJFCXCd-3" value="Магазин" style="shape=umlLifeline;perimeter=lifelinePerimeter;whiteSpace=wrap;html=1;container=1;dropTarget=0;collapsible=0;recursiveResize=0;outlineConnect=0;portConstraint=eastwest;newEdgeStyle={&quot;curved&quot;:0,&quot;rounded&quot;:0};" parent="1" vertex="1">
          <mxGeometry x="274" y="40" width="100" height="440" as="geometry" />
        </mxCell>
        <mxCell id="5uftUF0inhLei20xm1fw-1" value="" style="html=1;points=[[0,0,0,0,5],[0,1,0,0,-5],[1,0,0,0,5],[1,1,0,0,-5]];perimeter=orthogonalPerimeter;outlineConnect=0;targetShapes=umlLifeline;portConstraint=eastwest;newEdgeStyle={&quot;curved&quot;:0,&quot;rounded&quot;:0};" parent="FBocLN2tNAdrAwJFCXCd-3" vertex="1">
          <mxGeometry x="45" y="70" width="10" height="130" as="geometry" />
        </mxCell>
        <mxCell id="5uftUF0inhLei20xm1fw-2" style="edgeStyle=orthogonalEdgeStyle;rounded=0;orthogonalLoop=1;jettySize=auto;html=1;curved=0;" parent="1" edge="1">
          <mxGeometry relative="1" as="geometry">
            <mxPoint x="89" y="130" as="sourcePoint" />
            <mxPoint x="319" y="130" as="targetPoint" />
          </mxGeometry>
        </mxCell>
        <mxCell id="5uftUF0inhLei20xm1fw-3" value="ПолучитьДанныеОЗаказе()" style="edgeLabel;html=1;align=center;verticalAlign=middle;resizable=0;points=[];" parent="5uftUF0inhLei20xm1fw-2" vertex="1" connectable="0">
          <mxGeometry x="0.0174" relative="1" as="geometry">
            <mxPoint as="offset" />
          </mxGeometry>
        </mxCell>
        <mxCell id="5uftUF0inhLei20xm1fw-5" style="edgeStyle=orthogonalEdgeStyle;rounded=0;orthogonalLoop=1;jettySize=auto;html=1;curved=0;" parent="1" source="5uftUF0inhLei20xm1fw-1" edge="1">
          <mxGeometry relative="1" as="geometry">
            <Array as="points">
              <mxPoint x="384" y="200" />
              <mxPoint x="384" y="200" />
            </Array>
            <mxPoint x="579" y="200" as="targetPoint" />
          </mxGeometry>
        </mxCell>
        <mxCell id="5uftUF0inhLei20xm1fw-6" value="ПолучитьДанныеОНаличииМебели(ИдМебели)" style="edgeLabel;html=1;align=center;verticalAlign=middle;resizable=0;points=[];" parent="5uftUF0inhLei20xm1fw-5" vertex="1" connectable="0">
          <mxGeometry x="-0.1778" y="-2" relative="1" as="geometry">
            <mxPoint x="22" y="-2" as="offset" />
          </mxGeometry>
        </mxCell>
        <mxCell id="5uftUF0inhLei20xm1fw-10" style="edgeStyle=orthogonalEdgeStyle;rounded=0;orthogonalLoop=1;jettySize=auto;html=1;curved=0;" parent="1" edge="1">
          <mxGeometry relative="1" as="geometry">
            <Array as="points">
              <mxPoint x="264" y="350" />
              <mxPoint x="264" y="350" />
            </Array>
            <mxPoint x="699" y="350" as="targetPoint" />
            <mxPoint x="85" y="350" as="sourcePoint" />
          </mxGeometry>
        </mxCell>
        <mxCell id="5uftUF0inhLei20xm1fw-11" value="ВнестиНовыеДанные()" style="edgeLabel;html=1;align=center;verticalAlign=middle;resizable=0;points=[];" parent="5uftUF0inhLei20xm1fw-10" vertex="1" connectable="0">
          <mxGeometry x="-0.6557" y="-1" relative="1" as="geometry">
            <mxPoint as="offset" />
          </mxGeometry>
        </mxCell>
      </root>
    </mxGraphModel>
  </diagram>
  <diagram id="wgT-WKkc9HHT5efwVmet" name="ДР">
    <mxGraphModel dx="1042" dy="562" grid="1" gridSize="10" guides="1" tooltips="1" connect="1" arrows="1" fold="1" page="1" pageScale="1" pageWidth="827" pageHeight="1169" math="0" shadow="0">
      <root>
        <mxCell id="0" />
        <mxCell id="1" parent="0" />
        <mxCell id="DWqKF4rdQ_nl_Mp_S9SJ-1" value="&amp;nbsp;«device»&amp;nbsp;Сервер приложений" style="verticalAlign=top;align=center;shape=cube;size=10;direction=south;fontStyle=0;html=1;boundedLbl=1;spacingLeft=5;whiteSpace=wrap;" parent="1" vertex="1">
          <mxGeometry x="460" y="120" width="290" height="280" as="geometry" />
        </mxCell>
        <mxCell id="DWqKF4rdQ_nl_Mp_S9SJ-2" value="&amp;nbsp;«OS»&amp;nbsp;Linux" style="verticalAlign=top;align=center;shape=cube;size=10;direction=south;html=1;boundedLbl=1;spacingLeft=5;whiteSpace=wrap;" parent="DWqKF4rdQ_nl_Mp_S9SJ-1" vertex="1">
          <mxGeometry width="240" height="200" relative="1" as="geometry">
            <mxPoint x="25" y="50" as="offset" />
          </mxGeometry>
        </mxCell>
        <mxCell id="DWqKF4rdQ_nl_Mp_S9SJ-3" value="&amp;nbsp;«application»&lt;div&gt;веб-сервер&lt;/div&gt;" style="html=1;align=center;verticalAlign=middle;dashed=0;whiteSpace=wrap;" parent="DWqKF4rdQ_nl_Mp_S9SJ-1" vertex="1">
          <mxGeometry x="90" y="100" width="110" height="60" as="geometry" />
        </mxCell>
        <mxCell id="DWqKF4rdQ_nl_Mp_S9SJ-4" value="«Scripts PHP»&lt;div&gt;Библиотека сервисов ДМ&lt;/div&gt;" style="html=1;align=center;verticalAlign=middle;dashed=0;whiteSpace=wrap;" parent="DWqKF4rdQ_nl_Mp_S9SJ-1" vertex="1">
          <mxGeometry x="90" y="180" width="110" height="60" as="geometry" />
        </mxCell>
        <mxCell id="DWqKF4rdQ_nl_Mp_S9SJ-5" value="" style="html=1;verticalAlign=bottom;labelBackgroundColor=none;endArrow=open;endFill=0;dashed=1;rounded=0;exitX=1;exitY=0.5;exitDx=0;exitDy=0;entryX=1;entryY=0.5;entryDx=0;entryDy=0;" parent="DWqKF4rdQ_nl_Mp_S9SJ-1" source="DWqKF4rdQ_nl_Mp_S9SJ-4" target="DWqKF4rdQ_nl_Mp_S9SJ-3" edge="1">
          <mxGeometry width="160" relative="1" as="geometry">
            <mxPoint x="30" y="380" as="sourcePoint" />
            <mxPoint x="190" y="380" as="targetPoint" />
            <Array as="points">
              <mxPoint x="230" y="210" />
              <mxPoint x="230" y="130" />
            </Array>
          </mxGeometry>
        </mxCell>
        <mxCell id="DWqKF4rdQ_nl_Mp_S9SJ-6" value="Веб-браузер" style="verticalAlign=top;align=center;shape=cube;size=10;direction=south;html=1;boundedLbl=1;spacingLeft=5;whiteSpace=wrap;" parent="1" vertex="1">
          <mxGeometry x="290" y="230" width="100" height="50" as="geometry" />
        </mxCell>
        <mxCell id="DWqKF4rdQ_nl_Mp_S9SJ-7" value="«OS»&amp;nbsp;Windows" style="verticalAlign=top;align=center;shape=cube;size=10;direction=south;html=1;boundedLbl=1;spacingLeft=5;whiteSpace=wrap;" parent="1" vertex="1">
          <mxGeometry x="290" y="320" width="110" height="50" as="geometry" />
        </mxCell>
        <mxCell id="DWqKF4rdQ_nl_Mp_S9SJ-8" value="&lt;span style=&quot;text-wrap: wrap; background-color: rgb(251, 251, 251);&quot;&gt;&amp;nbsp;«device» Веб-клиент&lt;/span&gt;" style="image;html=1;image=img/lib/clip_art/computers/Monitor_Tower_128x128.png" parent="1" vertex="1">
          <mxGeometry x="90" y="250" width="80" height="80" as="geometry" />
        </mxCell>
        <mxCell id="DWqKF4rdQ_nl_Mp_S9SJ-9" value="" style="endArrow=diamondThin;endFill=1;endSize=24;html=1;rounded=0;exitX=0;exitY=0;exitDx=30;exitDy=100;exitPerimeter=0;entryX=1;entryY=0.5;entryDx=0;entryDy=0;" parent="1" source="DWqKF4rdQ_nl_Mp_S9SJ-6" target="DWqKF4rdQ_nl_Mp_S9SJ-8" edge="1">
          <mxGeometry width="160" relative="1" as="geometry">
            <mxPoint x="230" y="410" as="sourcePoint" />
            <mxPoint x="390" y="410" as="targetPoint" />
          </mxGeometry>
        </mxCell>
        <mxCell id="DWqKF4rdQ_nl_Mp_S9SJ-10" value="" style="endArrow=diamondThin;endFill=1;endSize=24;html=1;rounded=0;exitX=0;exitY=0;exitDx=30;exitDy=110;exitPerimeter=0;entryX=1;entryY=0.75;entryDx=0;entryDy=0;" parent="1" source="DWqKF4rdQ_nl_Mp_S9SJ-7" target="DWqKF4rdQ_nl_Mp_S9SJ-8" edge="1">
          <mxGeometry width="160" relative="1" as="geometry">
            <mxPoint x="300" y="270" as="sourcePoint" />
            <mxPoint x="180" y="300" as="targetPoint" />
          </mxGeometry>
        </mxCell>
        <mxCell id="DWqKF4rdQ_nl_Mp_S9SJ-11" value="" style="endArrow=none;html=1;rounded=0;entryX=0;entryY=0.5;entryDx=0;entryDy=0;exitX=0;exitY=0;exitDx=20;exitDy=0;exitPerimeter=0;" parent="1" source="DWqKF4rdQ_nl_Mp_S9SJ-6" target="DWqKF4rdQ_nl_Mp_S9SJ-3" edge="1">
          <mxGeometry width="50" height="50" relative="1" as="geometry">
            <mxPoint x="260" y="480" as="sourcePoint" />
            <mxPoint x="310" y="430" as="targetPoint" />
          </mxGeometry>
        </mxCell>
        <mxCell id="DWqKF4rdQ_nl_Mp_S9SJ-12" value="&lt;span style=&quot;&quot;&gt;&amp;nbsp;«device»&amp;nbsp;Сервер БД&lt;/span&gt;" style="verticalAlign=top;align=center;shape=cube;size=10;direction=south;fontStyle=0;html=1;boundedLbl=1;spacingLeft=5;whiteSpace=wrap;" parent="1" vertex="1">
          <mxGeometry x="50" y="450" width="340" height="270" as="geometry" />
        </mxCell>
        <mxCell id="DWqKF4rdQ_nl_Mp_S9SJ-13" value="&amp;nbsp;«OS»&amp;nbsp;Linux" style="verticalAlign=top;align=center;shape=cube;size=10;direction=south;html=1;boundedLbl=1;spacingLeft=5;whiteSpace=wrap;" parent="DWqKF4rdQ_nl_Mp_S9SJ-12" vertex="1">
          <mxGeometry width="280" height="200" relative="1" as="geometry">
            <mxPoint x="24" y="50" as="offset" />
          </mxGeometry>
        </mxCell>
        <mxCell id="DWqKF4rdQ_nl_Mp_S9SJ-14" value="«database system»&amp;nbsp;СУБД" style="verticalAlign=top;align=center;shape=cube;size=10;direction=south;html=1;boundedLbl=1;spacingLeft=5;whiteSpace=wrap;" parent="DWqKF4rdQ_nl_Mp_S9SJ-12" vertex="1">
          <mxGeometry x="60" y="100" width="200" height="130" as="geometry" />
        </mxCell>
        <mxCell id="DWqKF4rdQ_nl_Mp_S9SJ-15" value="«artifact»&lt;div&gt;База данных&lt;/div&gt;" style="html=1;align=center;verticalAlign=middle;dashed=0;whiteSpace=wrap;" parent="DWqKF4rdQ_nl_Mp_S9SJ-12" vertex="1">
          <mxGeometry x="105" y="150" width="110" height="60" as="geometry" />
        </mxCell>
        <mxCell id="DWqKF4rdQ_nl_Mp_S9SJ-16" value="" style="endArrow=none;html=1;rounded=0;exitX=0;exitY=0;exitDx=95;exitDy=0;exitPerimeter=0;" parent="1" source="DWqKF4rdQ_nl_Mp_S9SJ-13" edge="1">
          <mxGeometry width="50" height="50" relative="1" as="geometry">
            <mxPoint x="430" y="630" as="sourcePoint" />
            <mxPoint x="430" y="250" as="targetPoint" />
            <Array as="points">
              <mxPoint x="430" y="595" />
            </Array>
          </mxGeometry>
        </mxCell>
        <mxCell id="DWqKF4rdQ_nl_Mp_S9SJ-17" value="&lt;span style=&quot;text-wrap: wrap; font-size: 12px; background-color: rgb(251, 251, 251);&quot;&gt;&amp;nbsp;«protocol»&amp;nbsp;&lt;/span&gt;&lt;div&gt;&lt;span style=&quot;font-size: 12px; text-wrap: wrap; background-color: rgb(251, 251, 251);&quot;&gt;TCP/IP&lt;/span&gt;&lt;/div&gt;" style="edgeLabel;html=1;align=center;verticalAlign=middle;resizable=0;points=[];" parent="DWqKF4rdQ_nl_Mp_S9SJ-16" vertex="1" connectable="0">
          <mxGeometry x="-0.3577" relative="1" as="geometry">
            <mxPoint x="40" y="-16" as="offset" />
          </mxGeometry>
        </mxCell>
        <mxCell id="DWqKF4rdQ_nl_Mp_S9SJ-18" value="" style="endArrow=none;html=1;rounded=0;entryX=0;entryY=0;entryDx=280;entryDy=150;entryPerimeter=0;exitX=0.714;exitY=-0.004;exitDx=0;exitDy=0;exitPerimeter=0;" parent="1" source="DWqKF4rdQ_nl_Mp_S9SJ-12" target="DWqKF4rdQ_nl_Mp_S9SJ-1" edge="1">
          <mxGeometry width="50" height="50" relative="1" as="geometry">
            <mxPoint x="710" y="630" as="sourcePoint" />
            <mxPoint x="760" y="580" as="targetPoint" />
            <Array as="points">
              <mxPoint x="600" y="643" />
            </Array>
          </mxGeometry>
        </mxCell>
        <mxCell id="DWqKF4rdQ_nl_Mp_S9SJ-19" value="&lt;span style=&quot;font-size: 12px; text-wrap: wrap; background-color: rgb(251, 251, 251);&quot;&gt;&amp;nbsp;«ethernet»&amp;nbsp;&lt;/span&gt;&lt;div&gt;&lt;span style=&quot;font-size: 12px; text-wrap: wrap; background-color: rgb(251, 251, 251);&quot;&gt;Локальная сеть&lt;/span&gt;&lt;/div&gt;" style="edgeLabel;html=1;align=center;verticalAlign=middle;resizable=0;points=[];" parent="DWqKF4rdQ_nl_Mp_S9SJ-18" vertex="1" connectable="0">
          <mxGeometry x="-0.511" y="2" relative="1" as="geometry">
            <mxPoint x="38" y="-26" as="offset" />
          </mxGeometry>
        </mxCell>
      </root>
    </mxGraphModel>
  </diagram>
</mxfile>
